<svg xmlns="http://www.w3.org/2000/svg" viewBox="0 0 16 15" shape-rendering="crispEdges" role="img" aria-label="JAGE">
  <title>JAGE</title>
  <path fill="#B7CCF7" d="M6 0h4v1h-4zM4 1h8v1h-8zM2 2h12v1h-12zM0 3h16v1h-16zM2 4h12v1h-12zM4 5h8v1h-8zM6 6h4v1h-4z"/>
  <path fill="#6495ED" d="M0 4h2v1h-2zM0 5h4v1h-4zM0 6h6v1h-6zM0 7h8v1h-8zM0 8h8v1h-8zM0 9h8v1h-8zM0 10h8v1h-8zM0 11h8v1h-8zM2 12h6v1h-6zM4 13h4v1h-4zM6 14h2v1h-2z"/>
  <path fill="#3A66C4" d="M14 4h2v1h-2zM12 5h4v1h-4zM10 6h6v1h-6zM8 7h8v1h-8zM8 8h8v1h-8zM8 9h8v1h-8zM8 10h8v1h-8zM8 11h8v1h-8zM8 12h6v1h-6zM8 13h4v1h-4zM8 14h2v1h-2z"/>
</svg>
